<?xml version="1.0" encoding="utf-8"?>
<!-- Generator: Adobe Illustrator 22.1.0, SVG Export Plug-In . SVG Version: 6.00 Build 0)  -->
<svg version="1.1" id="Layer_1" xmlns="http://www.w3.org/2000/svg" xmlns:xlink="http://www.w3.org/1999/xlink" x="0px" y="0px"
	 viewBox="0 0 1080 1080" style="enable-background:new 0 0 1080 1080;" xml:space="preserve">
<style type="text/css">
	.st0{fill:none;stroke:#000000;stroke-width:10;stroke-miterlimit:10;}
</style>
<line class="st0" x1="-91.1" y1="328.8" x2="-91.1" y2="328.8"/>
<line class="st0" x1="1055.6" y1="564.2" x2="1055.6" y2="564.2"/>
<line class="st0" x1="707.6" y1="328.8" x2="707.6" y2="328.8"/>
<line class="st0" x1="1008.9" y1="328.8" x2="1008.9" y2="328.8"/>
<rect x="83.3" y="575" class="st0" width="538.2" height="101.8"/>
<line class="st0" x1="719.8" y1="328.8" x2="719.8" y2="328.8"/>
<path d="M203.3,691.2L203.3,691.2c0,33.1-26.9,60-60,60l0,0c-33.1,0-60-26.9-60-60l0,0"/>
<path d="M412.5,691.2L412.5,691.2c0,33.1-26.9,60-60,60l0,0c-33.1,0-60-26.9-60-60l0,0"/>
<path d="M607.5,691.2L607.5,691.2c0,33.1-26.9,60-60,60l0,0c-33.1,0-60-26.9-60-60l0,0"/>
<rect x="463.5" y="505" class="st0" width="52.5" height="70"/>
<path d="M489.8,549.8L489.8,549.8c-24.7,0-44.8-20.1-44.8-44.8l0,0c0-24.7,20.1-44.8,44.8-44.8l0,0c24.7,0,44.8,20.1,44.8,44.8l0,0
	C534.5,529.7,514.5,549.8,489.8,549.8z"/>
</svg>
