<?xml version="1.0" encoding="utf-8"?>
<!-- Generator: Adobe Illustrator 22.1.0, SVG Export Plug-In . SVG Version: 6.00 Build 0)  -->
<svg version="1.1" id="Layer_1" xmlns:sketch="http://www.bohemiancoding.com/sketch/ns"
	 xmlns="http://www.w3.org/2000/svg" xmlns:xlink="http://www.w3.org/1999/xlink" x="0px" y="0px" viewBox="0 0 173.3 166.7"
	 style="enable-background:new 0 0 173.3 166.7;" xml:space="preserve">
<style type="text/css">
	.st0{fill:#FFFFFF;}
</style>
<title>action_090-no_camera_recorder-video-movie-record</title>
<desc>Created with Sketch.</desc>
<g sketch:type="MSPage">
	<g transform="translate(-450.000000, -405.000000)" sketch:type="MSArtboardGroup">
		<path sketch:type="MSShapeGroup" class="st0" d="M565.7,448.5c-2.4-2.2-5.5-3.5-9-3.5h-93.4c-7.4,0-13.3,6-13.3,13.4V525
			c0,7.4,6,13.4,13.3,13.4h12.5L565.7,448.5z M504.1,538.3h52.5c7.4,0,13.3-6,13.3-13.4v-52.5L504.1,538.3z M618.7,534.7
			c2.2,0.9,4.6-0.7,4.6-3.1v-80c0-2.4-2.4-4-4.6-3.1l-42,18.5v49.2L618.7,534.7z M617.6,406l-160,160c-1.3,1.3-1.3,3.4,0,4.7
			s3.4,1.3,4.7,0l160-160c1.3-1.3,1.3-3.4,0-4.7S618.9,404.7,617.6,406z"/>
	</g>
</g>
</svg>
