<?xml version="1.0" encoding="utf-8"?>
<!-- Generator: Adobe Illustrator 16.0.0, SVG Export Plug-In . SVG Version: 6.00 Build 0)  -->
<!DOCTYPE svg PUBLIC "-//W3C//DTD SVG 1.1//EN" "http://www.w3.org/Graphics/SVG/1.1/DTD/svg11.dtd">
<svg version="1.1" id="Layer_1" xmlns:sketch="http://www.bohemiancoding.com/sketch/ns"
	 xmlns="http://www.w3.org/2000/svg" xmlns:xlink="http://www.w3.org/1999/xlink" x="0px" y="0px" width="173.342px"
	 height="166.667px" viewBox="87.333 13.333 173.342 166.667" enable-background="new 87.333 13.333 173.342 166.667"
	 xml:space="preserve">
<title>action_090-no_camera_recorder-video-movie-record</title>
<desc>Created with Sketch.</desc>
<g sketch:type="MSPage">
	<g transform="translate(-450.000000, -405.000000)" sketch:type="MSArtboardGroup">
		<path sketch:type="MSShapeGroup" d="M653.014,461.844c-2.37-2.181-5.528-3.511-8.996-3.511h-93.368
			c-7.377,0-13.316,5.987-13.316,13.373v66.588c0,7.393,5.962,13.372,13.316,13.372h12.542L653.014,461.844z M591.476,551.666
			h52.542c7.376,0,13.315-5.986,13.315-13.372v-52.485L591.476,551.666z M706.028,548.064c2.2,0.941,4.646-0.672,4.646-3.064v-80
			c0-2.393-2.446-4.006-4.646-3.064L664,480.4v49.2L706.028,548.064z M704.977,419.31l-160,160c-1.302,1.302-1.302,3.412,0,4.714
			c1.302,1.302,3.412,1.302,4.714,0l160-160c1.302-1.302,1.302-3.412,0-4.714S706.278,418.008,704.977,419.31z"/>
	</g>
</g>
</svg>
