<?xml version="1.0" encoding="utf-8"?>
<!-- Generator: Adobe Illustrator 23.0.1, SVG Export Plug-In . SVG Version: 6.00 Build 0)  -->
<svg version="1.1" id="Capa_1" xmlns="http://www.w3.org/2000/svg" xmlns:xlink="http://www.w3.org/1999/xlink" x="0px" y="0px"
	 viewBox="0 0 841.9 374.2" style="enable-background:new 0 0 841.9 374.2;" xml:space="preserve">
<style type="text/css">
	.st0{fill:#FFFFFF;stroke:#FFFFFF;stroke-width:10;stroke-miterlimit:10;}
	.st1{fill:#FFFFFF;}
	.st2{fill:#A11C26;}
	.st3{fill:#386539;}
</style>
<g>
	<g>
		<path class="st0" d="M386.1,79.9c1,5.8-1,14.2,2.6,19.2c5,7.3,17.7,6.6,16.8,15.6c-1,9.4-10,9.2-14.9,15.7
			c-5.3,7-3.5,16.3-1.9,23.7c1.6,7.8-0.6,17.8-4,25.3c-4,9.1-3,16-0.7,25.1c1.6,6.4-3.5,13.1-1,18.8c1.6,3.6,6.1,6.1,7,10.1
			c1.2,4.7-0.4,10.1-0.9,14.8c-0.4,3.4-1.1,6.6-1.9,9.8c-1.1,4.1,0.4,7,0,11.2c-0.9,8.6-2.9,16.8-2.1,25.8
			c1,10.9,6.6,30.9,25.3,35.2c7.8,1.8,18.3,1.9,21.5,7.9c1.1,2.2-1.5,5.9-1.6,8c-0.2,4.4,1,9,1.3,13.3c0.9,8.4-3.6,11.8-15.4,6.5
			c-10.3-4.6-23.8-9.5-30.4-16.4c-2.9-3.1-3.4-5.5-7-8.4c-4.7-3.7-5.1-4.3-7-9.2c-3.3-8.4-6.7-16.6-9.1-25.1
			c-2.4-8.8,2.2-17.4,4.7-25.9c2.2-7.3,10.8-18.1,2.3-24.7c-2.3,1.8-6.8,21.5-14.8,10c-3-4.3,1.9-12.8,1.3-17.8
			c-0.6-5.9-1.7-11.3-0.9-17.2c1.3-9.5,4.3-18.8,5.2-28.2c1.1-10.4-2.7-20.8-3-31c-0.1-4.9,2.6-9.5,3.5-14.2
			c1.2-5.2-0.2-10.4-0.2-15.7c-0.1-10.6,7.4-22.7,4.1-33c-1.1-3.7-4.3-8.4-6.8-11.9c-4.3-5.9-3.8-3.1,3.3-7.7c4.3-2.8,5-6.1,9.2-7.9
			c0.2-0.1,7.5-1.2,8.7-1.4C382.8,79.9,381.3,77.7,386.1,79.9z"/>
		<path class="st0" d="M329.7,40.8c13.6,0.6,28.3,5.8,34.4,10.2c4.1,3,5.6,8,10.2,10.6c3.6,1.9,12,1.7,12.6,5.8
			c0.9,4.6-9,5.9-13.7,7.8c-6.8,2.8-8.5,7.6-14,10.4c-14.5,7.6,0-13,0.5-15.7c1.6-10.2-9.2-17.3-23.9-20.3
			c-15.3-3.1-30.5-0.5-42.1,6.7c-2.6,1.6-3.8,5.6-8.1,4c-6.2-2.5,3.6-9.1,6.6-10.7C300.4,45.1,316.8,40.2,329.7,40.8z"/>
	</g>
	<g>
		<path class="st1" d="M386.1,79.9c1,5.8-1,14.2,2.6,19.2c5,7.3,17.7,6.6,16.8,15.6c-1,9.4-10,9.2-14.9,15.7
			c-5.3,7-3.5,16.3-1.9,23.7c1.6,7.8-0.6,17.8-4,25.3c-4,9.1-3,16-0.7,25.1c1.6,6.4-3.5,13.1-1,18.8c1.6,3.6,6.1,6.1,7,10.1
			c1.2,4.7-0.4,10.1-0.9,14.8c-0.4,3.4-1.1,6.6-1.9,9.8c-1.1,4.1,0.4,7,0,11.2c-0.9,8.6-2.9,16.8-2.1,25.8
			c1,10.9,6.6,30.9,25.3,35.2c7.8,1.8,18.3,1.9,21.5,7.9c1.1,2.2-1.5,5.9-1.6,8c-0.2,4.4,1,9,1.3,13.3c0.9,8.4-3.6,11.8-15.4,6.5
			c-10.3-4.6-23.8-9.5-30.4-16.4c-2.9-3.1-3.4-5.5-7-8.4c-4.7-3.7-5.1-4.3-7-9.2c-3.3-8.4-6.7-16.6-9.1-25.1
			c-2.4-8.8,2.2-17.4,4.7-25.9c2.2-7.3,10.8-18.1,2.3-24.7c-2.3,1.8-6.8,21.5-14.8,10c-3-4.3,1.9-12.8,1.3-17.8
			c-0.6-5.9-1.7-11.3-0.9-17.2c1.3-9.5,4.3-18.8,5.2-28.2c1.1-10.4-2.7-20.8-3-31c-0.1-4.9,2.6-9.5,3.5-14.2
			c1.2-5.2-0.2-10.4-0.2-15.7c-0.1-10.6,7.4-22.7,4.1-33c-1.1-3.7-4.3-8.4-6.8-11.9c-4.3-5.9-3.8-3.1,3.3-7.7c4.3-2.8,5-6.1,9.2-7.9
			c0.2-0.1,7.5-1.2,8.7-1.4C382.8,79.9,381.3,77.7,386.1,79.9z"/>
		<path class="st1" d="M329.7,40.8c13.6,0.6,28.3,5.8,34.4,10.2c4.1,3,5.6,8,10.2,10.6c3.6,1.9,12,1.7,12.6,5.8
			c0.9,4.6-9,5.9-13.7,7.8c-6.8,2.8-8.5,7.6-14,10.4c-14.5,7.6,0-13,0.5-15.7c1.6-10.2-9.2-17.3-23.9-20.3
			c-15.3-3.1-30.5-0.5-42.1,6.7c-2.6,1.6-3.8,5.6-8.1,4c-6.2-2.5,3.6-9.1,6.6-10.7C300.4,45.1,316.8,40.2,329.7,40.8z"/>
	</g>
	<g>
		<path class="st2" d="M386.1,79.9c1,5.8-1,14.2,2.6,19.2c5,7.3,17.7,6.6,16.8,15.6c-1,9.4-10,9.2-14.9,15.7
			c-5.3,7-3.5,16.3-1.9,23.7c1.6,7.8-0.6,17.8-4,25.3c-4,9.1-3,16-0.7,25.1c1.6,6.4-3.5,13.1-1,18.8c1.6,3.6,6.1,6.1,7,10.1
			c1.2,4.7-0.4,10.1-0.9,14.8c-0.4,3.4-1.1,6.6-1.9,9.8c-1.1,4.1,0.4,7,0,11.2c-0.9,8.6-2.9,16.8-2.1,25.8
			c1,10.9,6.6,30.9,25.3,35.2c7.8,1.8,18.3,1.9,21.5,7.9c1.1,2.2-1.5,5.9-1.6,8c-0.2,4.4,1,9,1.3,13.3c0.9,8.4-3.6,11.8-15.4,6.5
			c-10.3-4.6-23.8-9.5-30.4-16.4c-2.9-3.1-3.4-5.5-7-8.4c-4.7-3.7-5.1-4.3-7-9.2c-3.3-8.4-6.7-16.6-9.1-25.1
			c-2.4-8.8,2.2-17.4,4.7-25.9c2.2-7.3,10.8-18.1,2.3-24.7c-2.3,1.8-6.8,21.5-14.8,10c-3-4.3,1.9-12.8,1.3-17.8
			c-0.6-5.9-1.7-11.3-0.9-17.2c1.3-9.5,4.3-18.8,5.2-28.2c1.1-10.4-2.7-20.8-3-31c-0.1-4.9,2.6-9.5,3.5-14.2
			c1.2-5.2-0.2-10.4-0.2-15.7c-0.1-10.6,7.4-22.7,4.1-33c-1.1-3.7-4.3-8.4-6.8-11.9c-4.3-5.9-3.8-3.1,3.3-7.7c4.3-2.8,5-6.1,9.2-7.9
			c0.2-0.1,7.5-1.2,8.7-1.4C382.8,79.9,381.3,77.7,386.1,79.9z"/>
		<path class="st3" d="M329.7,40.8c13.6,0.6,28.3,5.8,34.4,10.2c4.1,3,5.6,8,10.2,10.6c3.6,1.9,12,1.7,12.6,5.8
			c0.9,4.6-9,5.9-13.7,7.8c-6.8,2.8-8.5,7.6-14,10.4c-14.5,7.6,0-13,0.5-15.7c1.6-10.2-9.2-17.3-23.9-20.3
			c-15.3-3.1-30.5-0.5-42.1,6.7c-2.6,1.6-3.8,5.6-8.1,4c-6.2-2.5,3.6-9.1,6.6-10.7C300.4,45.1,316.8,40.2,329.7,40.8z"/>
	</g>
	<g>
		<path class="st1" d="M161.3,137.2c-7.8,3.1-17.1,1.6-27.9,1.6c-7,0-22.6-2.4-26.5,1.6c-3.9,3.1-2.3,24.3-2.3,32.1
			c0,32.8-1.6,73.4,0.7,99.9c14.8,5.5,38.9,0,55.3,4c1.6,14,4.6,36.7,0.7,48.4c-8.5,4-18.7,1.6-28.8,2.4
			c-25.6,1.6-52.8,4.7-73.1,0.8c-2.3-64-2.3-140.6-2.3-207.7c0-9.4-1.6-25.8,2.3-28.1c30.4-2.4,70.8-2.4,101,0
			C164.3,102.8,163.6,125.4,161.3,137.2z"/>
		<path class="st1" d="M232.8,180.9c7,2.4,23.3,2.4,29.5,0.8c3.9-26.5,0-60.9,3.9-87.4c12.4-2.4,33.4-4,45.9-0.8
			c2.3,75.8,3.2,158.5,0.7,232c-11.7,4.7-35,4-45.9,0.8c-3.9-26.5,1.6-61.7-0.7-89.8c-6.2-4-21.7-4-30.4-1.6
			c-4.6,27.4,0,64-3.9,92.1c-10.9,2.4-36.6,4-47.5-1.6c-2.3-60.9,1.6-126.5,1.6-187.4c0-14-3.2-29.7,1.6-42.1
			c10.9-4,29.5-3.1,42-3.1C235.1,117.6,229.7,153.5,232.8,180.9z"/>
	</g>
	<g>
		<path class="st1" d="M71.9,57.5c2.7,1.9,9.2,0,12.1,1.6c0.9,3.7,0.5,9.4-0.2,13.1c-7.8,0.6-17.5,0.8-24.5,0
			c-0.9-17.9-0.2-38.9-0.6-56.8c0-2.9,0-5.9,0.9-8.3c3.3-0.2,8.6-0.6,11.7,0.2C72.3,23,70.9,41.3,71.9,57.5z"/>
		<path class="st1" d="M122.1,71.9c-10,0.8-22.6,1.6-32.7,0.5c-1.1-17.5-0.2-38.7-0.2-58.3c0-2.9-0.2-6.7,0.9-7.7
			c3.8-0.6,11.5-0.6,16.8-0.5c5.6,0.2,10.6-0.2,14.6,0.6C122.5,27.4,122.3,52.3,122.1,71.9z M103.5,58.3c1.1,0.6,4.3,0.6,4.9-0.2
			c-0.2-12.2-0.2-26.4-1.3-38.7c-5.3-2.6-4.3,4.6-4.3,9C102.9,38.3,102.4,51.8,103.5,58.3z"/>
		<path class="st1" d="M162.3,19.7c-5.3,1.6-13.5,0.2-19.1,1.6c-0.6,2.9-0.6,7.4-0.5,10.4c5.6,1.8,14.2,0.5,19.7,2.2
			c1.1,11.5,0.9,27.1,0.2,39.1c-6.4,0.6-16.8,0.2-25.4,0.2c-2.2,0-6.4,0.5-7.5-0.6c-2.2-1.9-0.5-9.1-0.6-12.5
			c6.2-1.8,15.1,0,20.8-1.3c0.6-2.9,0.2-8.3-0.5-11.2c-6.2-0.8-14,0-20.2-0.6c0-0.2,0-0.2-0.2-0.2c-0.9-7.2-0.9-16.6-0.9-25.6
			c0-2.6,0-5.3,0-7.7c0-2.2-0.6-4.6,0.5-6.6c10.6-0.2,23-0.2,33.4,0.5C163.2,10.3,163,16.4,162.3,19.7z"/>
	</g>
	<g>
		<path class="st1" d="M491.7,273.8c-3.2-57.7,1.6-123.4-2.3-179.6c-10.9-3.1-29.5-1.6-41.2-0.8C445,102,445,113,445,123.1
			c1.6,64-0.7,139,2.3,203c24.9,3.1,59.1,2.4,86.3,0c2.3-13.3,3.9-33.6,0.7-46.8C524.4,273.8,501.1,280.8,491.7,273.8z"/>
		<path class="st1" d="M625,276.1c-1.6-40.6-2.3-93.6,1.6-134.3c4.6-2.4,14,0,17.9-3.1c3.2-10.9,3.9-32.1,0.7-44.5
			c-27.2-2.4-65.3-1.6-92.5,1.6c-2.3,9.4-2.3,29.7,0,39c3.9,4,14.8,0.8,19.4,4c3.2,32.1,3.2,71.8,3.2,104.7
			c0,12.5,1.6,24.3-2.3,34.3c-5.5,2.4-15.5-0.8-19.4,2.4c-2.3,13.3-4.6,33.6-2.3,46.8c13.2,4,31.1,1.6,48.9,1.6s35.7,0.8,49.8-3.1
			c0.7-14.9,1.6-35.2-3.2-46.8C641.4,276.1,629.8,279.2,625,276.1z"/>
		<path class="st1" d="M718.4,293.9c-0.2,2.3-0.5,5-0.2,7.2c0.9,0.4,3,0.4,3.9,0c0.2-2.4,0.1-5.4-0.4-7.6
			C720.7,293.3,719.2,293.4,718.4,293.9z"/>
		<path class="st1" d="M791,189.4c-19.4-6.2-49.8-1.6-69.2-7.8c-0.7-10.9-0.7-27.4,1.6-37.5c19.4-4.7,48.2,0,66.9-5.5
			c2.3-11.8,3.2-33.6-0.7-43.7c-36.6-2.4-80-2.4-117.4-1.6c-3.9,7.1-1.6,15.6-1.6,23.4c0,8.6,0,18,0,27.4c0,32.1,0,65.6,3.2,91.4
			c0.7,0,0.7,0,0.7,0.8c21.7,2.4,48.9-0.8,70.8,2.4c2.3,10.2,3.9,29.7,1.6,39.9c-20.2,4.7-51.4-1.6-73.1,4.7
			c0.7,11.8-5.5,37.5,2.3,44.5c3.9,4,18.7,2.4,26.5,2.4c30.4,0,66.9,1.6,89.4-0.8C794.2,286.3,794.9,230.9,791,189.4z M707.5,323.4
			c-5.2,0.2-12.8,0.5-18.5,0c-0.6-1.1-0.4-2.3-0.4-3.5c-0.1-4.3-0.1-9.5-0.4-14.3c-0.1-1.7-0.4-3.4-0.1-4.8c0.2-1.1,1.2-2.3,1.8-3.6
			c1.2-2.5,2.4-4.7,3.8-7.2c0.7-1.3,1.3-2.8,2.2-3.4c2.2-0.1,5.5-0.4,7.3,0.2c0.1,1.3-0.7,2.5-1.2,3.6c-1.5,3.4-3.4,6.6-4.7,10.2
			c2.7,0.8,6.7-0.5,9.7,0c0.9,1.4,0.5,3.6,0.5,5.5C707.5,311.8,708.1,318.1,707.5,323.4z M730.1,308.9c-0.2,1.1-1.3,2.5-2.1,3.7
			c-1.8,3.6-3.6,7.9-6,10.9c-2.6-0.2-5.2,0.5-7.2-0.2c1.1-5.2,4.4-9.2,6.1-14.3c-2.7-0.8-7,0.7-9.7,0.1c-0.7-1-0.4-2.4-0.4-4
			c0-5.8-0.7-12.2-0.1-18.2c4.1-0.7,9.6-0.4,14.5-0.6c1.3,0,2.9-0.1,4.1,0.2c0.5,4.9,0.5,9.7,0.6,15
			C730,303.9,730.4,306.9,730.1,308.9z M752.2,323.4c-2.1,0.8-4.5,0.1-6.8,0.1c-4,0-8.3,0.2-11.9-0.1c-0.7-2-0.2-5.8,0.1-7.8
			c3.4-0.7,7.3,0.6,10.8,0c0.5-1.8,0.2-4.8,0.1-6.6c-3.2-0.8-7.8,0.1-11.2-0.6c-0.6-5.2-0.1-11.4-0.1-16.9c0-1.8-0.2-3.7,0.4-5.3
			c4.9,0,10.8,0,15.5,0.5c0.4,2,0.6,5,0.1,7c-2.3,0.7-5.7-0.1-8.1,0.2c-0.6,1.4-0.5,5-0.1,6.6c3,0.6,8-0.5,10.9,0.4
			C752.3,307.9,752.8,316.3,752.2,323.4z M774.8,323.4c-2.1,0.8-4.5,0.1-6.8,0.1c-4,0-8.3,0.2-11.9-0.1c-0.7-2-0.2-5.8,0.1-7.8
			c3.4-0.7,7.3,0.6,10.8,0c0.5-1.8,0.2-4.8,0.1-6.6c-3.2-0.8-7.8,0.1-11.2-0.6c-0.6-5.2-0.1-11.4-0.1-16.9c0-1.8-0.2-3.7,0.4-5.3
			c4.9,0,10.8,0,15.5,0.5c0.4,2,0.6,5,0.1,7c-2.3,0.7-5.7-0.1-8.1,0.2c-0.6,1.4-0.5,5-0.1,6.6c3,0.6,8-0.5,10.9,0.4
			C774.9,307.9,775.3,316.3,774.8,323.4z"/>
		<path class="st1" d="M696.1,308.7c-0.5,2.3-0.1,5.6,0.4,7.8c0.9,0.1,2.4,0.1,3.3-0.2c0.2-2,0.5-5.2,0.2-7.6
			C699.1,308.2,696.9,308.2,696.1,308.7z"/>
	</g>
</g>
</svg>
